# xmcd
#
# Track frame offsets:
# 150
# 24133
# 52785
# 72373
# 92643
# 109205
# 135967
# 165471
# 195914
# 222221
#
# Disc length: 3481 seconds
#
# Revision: 0
# Processed by: cddbd v1.4PL0 Copyright (c) Steve Scherf et al.
# Submitted via: Axialis_AX_CDPlayer 2.6
#
DISCID=740d970a
DTITLE=Mick Taylor - A Stones Throw
DYEAR=1900
DGENRE=
TTITLE0=Secret affair
TTITLE1=Tvisted Sister
TTITLE2=Never fall in love again
TTITLE3=Losing my Faith
TTITLE4=Morning Comes
TTITLE5=Lost in the desert
TTITLE6=Blues in the morning
TTITLE7=Late at Night
TTITLE8=Here comes the rain
TTITLE9=Blind Willie Mc Tell
EXTD=
EXTT0=
EXTT1=
EXTT2=
EXTT3=
EXTT4=
EXTT5=
EXTT6=
EXTT7=
EXTT8=
EXTT9=
PLAYORDER=
